<svg xmlns="http://www.w3.org/2000/svg" id="Layer_1" data-name="Layer 1" viewBox="0 0 300 300"><defs><style>.cls-1,.cls-6{fill:#2e66b1}.cls-2{fill:#fff}.cls-6{isolation:isolate;font-size:37.01px;font-family:Nunito-ExtraBold,Nunito;font-weight:800}</style></defs><path d="M87.63 142.82H48.29c-4.48 0-8.13 3.2-8.13 7.13v30.84c0 3.93 3.65 7.13 8.13 7.13h39.34c4.48 0 8.13-3.2 8.13-7.13V150c0-4-3.65-7.18-8.13-7.18" class="cls-1"/><path d="M48.22 169.28c-.43.46-1.25.54-1.56 1.09a4.8 4.8 0 0 1-1.1 1.42 3.8 3.8 0 0 1-1.47.72 6.88 6.88 0 0 1-5.12-12.68l.53-.24.69-.27v.48a2.7 2.7 0 0 0 .16 1.2.86.86 0 0 0 .49.07 3 3 0 0 0 .42-.08 18 18 0 0 1 3.11-.57 4.9 4.9 0 0 1 2.26.21 2.18 2.18 0 0 1 1.37 1.72 2.6 2.6 0 0 1-.3 1.3 2.54 2.54 0 0 1 1 .76 1.86 1.86 0 0 1 .26 1.13 3.4 3.4 0 0 1-.37 1.41.7.7 0 0 0-.1.26.8.8 0 0 0 .12.33 1.65 1.65 0 0 1-.42 1.75Z" class="cls-2"/><path d="M46.64 170.42a5 5 0 0 1-1.1 1.42 3.9 3.9 0 0 1-1.47.72 6.86 6.86 0 0 1-7.14-11 7.8 7.8 0 0 0-.49 2.38 6.33 6.33 0 0 0 1.71 4.66 7.7 7.7 0 0 0 1.59 1.2 7.9 7.9 0 0 0 2 .9 6.9 6.9 0 0 0 2.07.24 12.2 12.2 0 0 0 2.85-.49Z" class="cls-2"/><path d="m46 170.85-2.33.39a1.1 1.1 0 0 1-.4 0c-.09 0-.2-.12-.21-.19a.28.28 0 0 1 .13-.25 5 5 0 0 1 .67-.25c.63-.16 1.26-.29 1.89-.46a5.1 5.1 0 0 0 1.86-.95 2.23 2.23 0 0 0 .79-1.53c-.18.12-.31.21-.45.29a7.6 7.6 0 0 1-4.28 1c-.24 0-.63-.05-.64-.3s.47-.28.7-.32c.78-.14 1.58-.2 2.34-.4a5.8 5.8 0 0 0 1.75-.8 1.91 1.91 0 0 0 0-3.11 6.25 6.25 0 0 1-4.74 1.87c-.25 0-1-.11-1-.29s.78-.36 1.05-.39a10 10 0 0 0 2.74-.64 3.3 3.3 0 0 0 1.4-1.08 1.2 1.2 0 0 0-.16-1.71 3.15 3.15 0 0 0-1.83-.73 7.6 7.6 0 0 0-3.19.2l-2 .54a1.6 1.6 0 0 1-.3.06.31.31 0 0 1-.24-.1.34.34 0 0 1 0-.28A1.34 1.34 0 0 1 40 161a9.62 9.62 0 0 1 6.3-.62 3 3 0 0 1 1.32.74 2 2 0 0 1 .53 2.18 3.5 3.5 0 0 1 .47.37 2.52 2.52 0 0 1 .41 3.08.5.5 0 0 0 0 .49 2 2 0 0 1-.31 1.76 3.26 3.26 0 0 1-1.23 1.13.8.8 0 0 0-.26.25 5.11 5.11 0 0 1-4.86 2.81 7.43 7.43 0 0 1-7.22-8.57 7.2 7.2 0 0 1 1.31-3.38 6.17 6.17 0 0 1 3.09-2.14 1.45 1.45 0 0 1 .61-.08c.14 0 .22.17.25.28a.38.38 0 0 1-.13.35 5.4 5.4 0 0 1-.71.25 5.33 5.33 0 0 0-2.57 1.86 5.5 5.5 0 0 0-.58 1.1 6.69 6.69 0 0 0 6.83 9.5 4.32 4.32 0 0 0 2.75-1.51" class="cls-1"/><path d="M87.62 169.28c.43.46 1.25.54 1.56 1.09a5 5 0 0 0 1.1 1.42 4 4 0 0 0 1.47.72 6.87 6.87 0 0 0 8.75-7.33 6.87 6.87 0 0 0-1.61-3.71 6.7 6.7 0 0 0-2-1.64l-.53-.24c-.35-.15-.69-.27-.69-.27v.48a2.85 2.85 0 0 1-.16 1.2.86.86 0 0 1-.49.07 3 3 0 0 1-.42-.08 18.3 18.3 0 0 0-3.11-.57 4.9 4.9 0 0 0-2.26.21 2.16 2.16 0 0 0-1.41 1.67 2.5 2.5 0 0 0 .3 1.3 2.54 2.54 0 0 0-1 .76 1.8 1.8 0 0 0-.26 1.13 3.4 3.4 0 0 0 .37 1.41.7.7 0 0 1 .1.26.8.8 0 0 1-.12.33 1.63 1.63 0 0 0 .42 1.75Z" class="cls-2"/><path d="M89.2 170.42a5 5 0 0 0 1.1 1.42 4 4 0 0 0 1.47.72 6.87 6.87 0 0 0 8.75-7.33 6.87 6.87 0 0 0-1.61-3.71 7.5 7.5 0 0 1 .49 2.38 6.3 6.3 0 0 1-1.71 4.66 7.4 7.4 0 0 1-1.58 1.2 8 8 0 0 1-2 .9 6.8 6.8 0 0 1-2.06.24 12.2 12.2 0 0 1-2.86-.49Z" class="cls-2"/><path d="m89.87 170.85 2.33.39a1.1 1.1 0 0 0 .4 0c.09 0 .2-.12.21-.19a.28.28 0 0 0-.13-.25 5 5 0 0 0-.68-.25c-.62-.16-1.26-.29-1.88-.46a5.1 5.1 0 0 1-1.86-.95 2.2 2.2 0 0 1-.79-1.53c.18.12.31.21.45.29a7.6 7.6 0 0 0 4.27 1c.25 0 .64-.05.65-.3s-.48-.28-.71-.32c-.78-.14-1.58-.2-2.34-.4a5.7 5.7 0 0 1-1.74-.8 1.91 1.91 0 0 1 0-3.11 6.24 6.24 0 0 0 4.74 1.87c.25 0 1-.11 1-.29s-.77-.36-1.05-.39a10 10 0 0 1-2.73-.64 3.24 3.24 0 0 1-1.4-1.08 1.21 1.21 0 0 1 .15-1.71 3.18 3.18 0 0 1 1.83-.73 7.7 7.7 0 0 1 3.2.2l2 .54a2 2 0 0 0 .31.06.31.31 0 0 0 .24-.1.31.31 0 0 0 0-.28 1.2 1.2 0 0 0-.41-.33 9.63 9.63 0 0 0-6.3-.62 3 3 0 0 0-1.32.74 2 2 0 0 0-.54 2.18 4 4 0 0 0-.46.37 2.51 2.51 0 0 0-.41 3.08.53.53 0 0 1 0 .49 2 2 0 0 0 .31 1.76 3.3 3.3 0 0 0 1.22 1.13.8.8 0 0 1 .27.25 5.11 5.11 0 0 0 4.85 2.81 7.43 7.43 0 0 0 7.22-8.57 7.1 7.1 0 0 0-1.3-3.38 6.2 6.2 0 0 0-3.1-2.14 1.4 1.4 0 0 0-.61-.08c-.13 0-.21.17-.24.28a.35.35 0 0 0 .13.35 6 6 0 0 0 .7.25 5.24 5.24 0 0 1 2.57 1.86 5.5 5.5 0 0 1 .59 1.1 6.7 6.7 0 0 1-6.83 9.5 4.32 4.32 0 0 1-2.79-1.53Z" class="cls-1"/><path d="M67.54 169.36a13.75 13.75 0 0 1-9.44-4.23 1.76 1.76 0 0 1 2.43-2.56c4.63 4.43 9.39 4.36 15-.21a1.77 1.77 0 0 1 2.24 2.73c-3.79 3.1-7.2 4.26-10.19 4.26Z" class="cls-2"/><path d="m99.11 129.14-1-9a6.18 6.18 0 0 0-6.77-5.48l-8.71.92a.47.47 0 0 1-.43-.75A28.74 28.74 0 0 0 87.55 103c1-5.41-1.1-11.64-6.22-14.15a12.22 12.22 0 0 0-12.23 1.3 12.76 12.76 0 0 0-4.1 5.37.52.52 0 0 1-.9.09 12.85 12.85 0 0 0-5.18-4.38 12.22 12.22 0 0 0-12.29 1.27c-4.47 3.52-5.19 10.06-3.12 15.14a28.8 28.8 0 0 0 7.67 10.51.47.47 0 0 1-.26.82l-8.71.92a6.18 6.18 0 0 0-5.48 6.78l1 9a6.18 6.18 0 0 0 6.78 5.48l49.17-5.2a6.17 6.17 0 0 0 5.48-6.77Z" class="cls-1"/><g style="isolation:isolate"><text style="isolation:isolate;font-size:37.01px;font-family:Nunito-ExtraBold,Nunito;font-weight:800;fill:#0e2845;letter-spacing:-.02em" transform="translate(108.26 178.61)">F</text><text style="font-size:37.01px;font-family:Nunito-ExtraBold,Nunito;font-weight:800;fill:#0e2845;letter-spacing:-.02em" transform="translate(128.32 178.61)">ab</text><text class="cls-6" transform="translate(170.77 178.61)">k</text><text class="cls-6" transform="translate(190.61 178.61)">r</text><text class="cls-6" transform="translate(204.94 178.61)">a</text><text style="fill:#2e66b1;isolation:isolate;font-size:37.01px;font-family:Nunito-ExtraBold,Nunito;font-weight:800;letter-spacing:-.03em" transform="translate(225.18 178.61)">f</text><text class="cls-6" transform="translate(230.62 178.61)"><tspan xml:space="preserve"> t</tspan></text></g><text style="fill:#0e2845;font-size:12px;font-family:MacklinSans-Regular,Macklin Sans" transform="translate(156.63 190.04)"><tspan style="letter-spacing:-.02em">F</tspan><tspan x="5.53" y="0">or </tspan><tspan x="17.87" y="0" style="letter-spacing:-.07em">Y</tspan><tspan x="23.45" y="0">our </tspan><tspan x="41.81" y="0" style="letter-spacing:-.01em">L</tspan><tspan x="47.55" y="0" style="letter-spacing:-.01em">ov</tspan><tspan x="58.89" y="0" style="letter-spacing:.01em">e</tspan><tspan x="64.67" y="0">d Ones</tspan></text></svg>